<mxfile host="app.diagrams.net" modified="2023-10-30T12:03:01.731Z" agent="Mozilla/5.0 (Windows NT 10.0; Win64; x64) AppleWebKit/537.36 (KHTML, like Gecko) Chrome/118.0.0.0 Safari/537.36" etag="k_1oRwLI74KRC_hdTPge" version="22.0.8" type="github">
  <diagram name="第 1 页" id="BSmtQ4j_3bzNoWONGAEx">
    <mxGraphModel dx="466" dy="748" grid="1" gridSize="10" guides="1" tooltips="1" connect="1" arrows="1" fold="1" page="1" pageScale="1" pageWidth="827" pageHeight="1169" math="0" shadow="0">
      <root>
        <mxCell id="0" />
        <mxCell id="1" parent="0" />
        <mxCell id="Z8MrdZWlAFJgvRF1hyXC-3" value="" style="edgeStyle=orthogonalEdgeStyle;rounded=0;orthogonalLoop=1;jettySize=auto;html=1;" edge="1" parent="1" source="Z8MrdZWlAFJgvRF1hyXC-1" target="Z8MrdZWlAFJgvRF1hyXC-2">
          <mxGeometry relative="1" as="geometry" />
        </mxCell>
        <mxCell id="Z8MrdZWlAFJgvRF1hyXC-1" value="开一个cl_kernel空间" style="rounded=1;whiteSpace=wrap;html=1;" vertex="1" parent="1">
          <mxGeometry x="210" y="60" width="120" height="60" as="geometry" />
        </mxCell>
        <mxCell id="Z8MrdZWlAFJgvRF1hyXC-5" value="" style="edgeStyle=orthogonalEdgeStyle;rounded=0;orthogonalLoop=1;jettySize=auto;html=1;" edge="1" parent="1" source="Z8MrdZWlAFJgvRF1hyXC-2" target="Z8MrdZWlAFJgvRF1hyXC-4">
          <mxGeometry relative="1" as="geometry" />
        </mxCell>
        <mxCell id="Z8MrdZWlAFJgvRF1hyXC-2" value="初始化kernel对象" style="whiteSpace=wrap;html=1;rounded=1;" vertex="1" parent="1">
          <mxGeometry x="210" y="170" width="120" height="60" as="geometry" />
        </mxCell>
        <mxCell id="Z8MrdZWlAFJgvRF1hyXC-7" value="" style="edgeStyle=orthogonalEdgeStyle;rounded=0;orthogonalLoop=1;jettySize=auto;html=1;" edge="1" parent="1" source="Z8MrdZWlAFJgvRF1hyXC-4" target="Z8MrdZWlAFJgvRF1hyXC-6">
          <mxGeometry relative="1" as="geometry" />
        </mxCell>
        <mxCell id="Z8MrdZWlAFJgvRF1hyXC-4" value="在program对象中找到与对应kernel的kernel元数据（包括kernel的附加信息，编译选项优化信息等）" style="whiteSpace=wrap;html=1;rounded=1;" vertex="1" parent="1">
          <mxGeometry x="130" y="270" width="280" height="140" as="geometry" />
        </mxCell>
        <mxCell id="Z8MrdZWlAFJgvRF1hyXC-9" value="" style="edgeStyle=orthogonalEdgeStyle;rounded=0;orthogonalLoop=1;jettySize=auto;html=1;" edge="1" parent="1" source="Z8MrdZWlAFJgvRF1hyXC-6" target="Z8MrdZWlAFJgvRF1hyXC-8">
          <mxGeometry relative="1" as="geometry" />
        </mxCell>
        <mxCell id="Z8MrdZWlAFJgvRF1hyXC-6" value="对kernel对象进行赋值，context等" style="whiteSpace=wrap;html=1;rounded=1;" vertex="1" parent="1">
          <mxGeometry x="210" y="470" width="120" height="60" as="geometry" />
        </mxCell>
        <mxCell id="Z8MrdZWlAFJgvRF1hyXC-11" value="" style="edgeStyle=orthogonalEdgeStyle;rounded=0;orthogonalLoop=1;jettySize=auto;html=1;" edge="1" parent="1" source="Z8MrdZWlAFJgvRF1hyXC-8" target="Z8MrdZWlAFJgvRF1hyXC-10">
          <mxGeometry relative="1" as="geometry" />
        </mxCell>
        <mxCell id="Z8MrdZWlAFJgvRF1hyXC-8" value="为内核的参数分配动态动态内存" style="whiteSpace=wrap;html=1;rounded=1;" vertex="1" parent="1">
          <mxGeometry x="210" y="570" width="120" height="60" as="geometry" />
        </mxCell>
        <mxCell id="Z8MrdZWlAFJgvRF1hyXC-10" value="交给每一个device去create device" style="whiteSpace=wrap;html=1;rounded=1;" vertex="1" parent="1">
          <mxGeometry x="210" y="680" width="120" height="60" as="geometry" />
        </mxCell>
      </root>
    </mxGraphModel>
  </diagram>
</mxfile>
